<svg xmlns="http://www.w3.org/2000/svg" viewBox="0 0 760 480" font-family="'Pretendard','Apple SD Gothic Neo',sans-serif">
  <rect width="760" height="480" rx="12" fill="#fafafa"/>
  <rect x="0" y="0" width="760" height="40" rx="12" fill="#ebebeb"/>
  <circle cx="24" cy="20" r="6" fill="#d4d4d4"/><circle cx="44" cy="20" r="6" fill="#d4d4d4"/><circle cx="64" cy="20" r="6" fill="#d4d4d4"/>
  <rect x="90" y="8" width="460" height="24" rx="12" fill="#ffffff"/>
  <text x="104" y="24" font-size="13" fill="#666666">vercel.com/teams/팀이름/settings/members</text>

  <text x="60" y="90" font-size="18" font-weight="700" fill="#000000">Members</text>
  <rect x="600" y="64" width="110" height="38" rx="8" fill="#000000" stroke="#e11d48" stroke-width="3"/>
  <text x="655" y="88" font-size="14" font-weight="600" fill="#ffffff" text-anchor="middle">Invite</text>
  <circle cx="585" cy="57" r="13" fill="#e11d48"/>
  <text x="585" y="62" font-size="14" font-weight="700" fill="#ffffff" text-anchor="middle">1</text>

  <rect x="140" y="130" width="480" height="290" rx="12" fill="#ffffff" stroke="#eaeaea"/>
  <text x="170" y="172" font-size="16" font-weight="700" fill="#000000">Invite Team Members</text>

  <text x="170" y="210" font-size="13" font-weight="600" fill="#000000">Email Address</text>
  <rect x="170" y="222" width="280" height="42" rx="8" fill="#ffffff" stroke="#e11d48" stroke-width="3"/>
  <text x="184" y="248" font-size="14" fill="#999999">복사한 이메일 붙여넣기</text>
  <circle cx="185" cy="288" r="13" fill="#e11d48"/>
  <text x="185" y="293" font-size="14" font-weight="700" fill="#ffffff" text-anchor="middle">2</text>

  <text x="470" y="210" font-size="13" font-weight="600" fill="#000000">Role</text>
  <rect x="470" y="222" width="150" height="42" rx="8" fill="#ffffff" stroke="#e11d48" stroke-width="3"/>
  <text x="484" y="248" font-size="14" fill="#000000">Member ▾</text>
  <circle cx="485" cy="288" r="13" fill="#e11d48"/>
  <text x="485" y="293" font-size="14" font-weight="700" fill="#ffffff" text-anchor="middle">3</text>
  <text x="507" y="293" font-size="13" font-weight="700" fill="#e11d48">Member 선택</text>

  <rect x="170" y="330" width="150" height="44" rx="8" fill="#000000"/>
  <text x="245" y="357" font-size="14" font-weight="600" fill="#ffffff" text-anchor="middle">Invite</text>
</svg>
