<svg xmlns="http://www.w3.org/2000/svg" viewBox="0 0 760 480" font-family="'Pretendard','Apple SD Gothic Neo',sans-serif">
  <rect width="760" height="480" rx="12" fill="#fafafa"/>
  <rect x="0" y="0" width="760" height="40" rx="12" fill="#ebebeb"/>
  <circle cx="24" cy="20" r="6" fill="#d4d4d4"/><circle cx="44" cy="20" r="6" fill="#d4d4d4"/><circle cx="64" cy="20" r="6" fill="#d4d4d4"/>
  <rect x="90" y="8" width="420" height="24" rx="12" fill="#ffffff"/>
  <text x="104" y="24" font-size="13" fill="#666666">vercel.com/teams/create</text>

  <rect x="160" y="90" width="440" height="330" rx="12" fill="#ffffff" stroke="#eaeaea"/>
  <text x="190" y="140" font-size="21" font-weight="700" fill="#000000">Create a Team</text>

  <text x="190" y="185" font-size="13" font-weight="600" fill="#000000">Team Name</text>
  <rect x="190" y="197" width="380" height="42" rx="8" fill="#ffffff" stroke="#e11d48" stroke-width="3"/>
  <text x="204" y="223" font-size="14" fill="#999999">sangrok-academy</text>
  <circle cx="205" cy="262" r="13" fill="#e11d48"/>
  <text x="205" y="267" font-size="14" font-weight="700" fill="#ffffff" text-anchor="middle">1</text>
  <text x="227" y="267" font-size="13" font-weight="700" fill="#e11d48">팀 이름을 영문으로</text>

  <rect x="190" y="290" width="380" height="44" rx="8" fill="#000000" stroke="#e11d48" stroke-width="3"/>
  <text x="380" y="317" font-size="15" font-weight="600" fill="#ffffff" text-anchor="middle">Continue</text>
  <circle cx="205" cy="360" r="13" fill="#e11d48"/>
  <text x="205" y="365" font-size="14" font-weight="700" fill="#ffffff" text-anchor="middle">2</text>
  <text x="227" y="365" font-size="13" font-weight="700" fill="#e11d48">클릭 — 다음에 Pro(월 $20) 결제 안내가 나옵니다</text>
  <text x="190" y="392" font-size="12" fill="#666666">결제 등록이 부담되면 멈추고 「막혔어요」를 눌러 주세요</text>
</svg>
